<svg width="150" height="150" viewBox="0 0 150 150" fill="none" xmlns="http://www.w3.org/2000/svg">
<rect width="150" height="150" fill="#0091E2"/>
<g clip-path="url(#clip0_29_451)">
<path d="M75 150C116.421 150 150 116.421 150 75C150 33.5786 116.421 0 75 0C33.5786 0 0 33.5786 0 75C0 116.421 33.5786 150 75 150Z" fill="#0091E2"/>
<path d="M121.187 67.6025C120.952 67.4121 118.828 65.8154 114.346 65.8154C113.159 65.8154 111.973 65.9033 110.801 66.123C109.937 60.1611 105.015 57.2607 104.795 57.1289L103.594 56.4258L102.803 57.5684C101.807 59.1064 101.089 60.791 100.664 62.5781C99.8584 65.9766 100.342 69.1699 102.07 71.8945C99.9902 73.0518 96.6357 73.3447 95.9619 73.3594H40.5762C39.126 73.3594 37.9541 74.5313 37.9541 75.9814C37.8955 80.8301 38.7158 85.6494 40.3711 90.2051C42.2754 95.2148 45.1172 98.8916 48.8086 101.147C52.9395 103.682 59.6631 105.132 67.2949 105.132C70.7373 105.146 74.1797 104.824 77.5635 104.194C82.2656 103.33 86.792 101.689 90.9522 99.3311C94.3799 97.3389 97.4707 94.8193 100.093 91.8457C104.473 86.8799 107.095 81.3428 109.043 76.4355H109.819C114.624 76.4355 117.583 74.5166 119.209 72.9053C120.293 71.8799 121.143 70.6348 121.685 69.2432L122.021 68.2324L121.187 67.6025ZM45.7031 71.7627H53.1299C53.4814 71.7627 53.7744 71.4697 53.7744 71.1182V64.5117C53.7744 64.1602 53.4814 63.8672 53.1299 63.8525H45.7031C45.3516 63.8525 45.0586 64.1455 45.0586 64.4971V71.1182C45.0586 71.4844 45.3516 71.7627 45.7031 71.7627ZM55.9424 71.7627H63.3691C63.7207 71.7627 64.0137 71.4697 64.0137 71.1182V64.5117C64.0137 64.1602 63.7207 63.8672 63.3691 63.8525H55.9424C55.5762 63.8525 55.2832 64.1455 55.2832 64.5117V71.1182C55.2832 71.4844 55.5762 71.7627 55.9424 71.7627ZM66.3135 71.7773H73.7402C74.0918 71.7773 74.3848 71.4844 74.3848 71.1328V64.5264C74.3848 64.1748 74.0918 63.8818 73.7402 63.8672H66.3135C65.9619 63.8672 65.6689 64.1602 65.6689 64.5117V71.1328C65.6689 71.4844 65.9619 71.7627 66.3135 71.7773ZM76.582 71.7773H84.0088C84.3604 71.7773 84.6533 71.4844 84.668 71.1328V64.5264C84.668 64.1602 84.375 63.8672 84.0088 63.8672H76.582C76.2305 63.8672 75.9375 64.1602 75.9375 64.5117V71.1328C75.9375 71.4844 76.2158 71.7773 76.582 71.7773ZM55.9277 62.2559H63.3545C63.7061 62.2559 63.999 61.9629 63.999 61.5967V54.9902C63.999 54.6387 63.7061 54.3457 63.3545 54.3457H55.9277C55.5615 54.3457 55.2832 54.6387 55.2686 54.9902V61.5967C55.2832 61.9629 55.5762 62.2559 55.9277 62.2559ZM66.3135 62.2559H73.7402C74.0918 62.2559 74.3848 61.9629 74.3848 61.5967V54.9902C74.3848 54.6387 74.0918 54.3457 73.7402 54.3457H66.3135C65.9619 54.3457 65.6689 54.6387 65.6689 54.9902V61.5967C65.6689 61.9629 65.9619 62.2559 66.3135 62.2559ZM76.582 62.2559H84.0088C84.375 62.2559 84.6533 61.9629 84.668 61.5967V54.9902C84.668 54.624 84.375 54.3457 84.0088 54.3457H76.582C76.2305 54.3457 75.9375 54.6387 75.9375 54.9902V61.5967C75.9375 61.9629 76.2158 62.2559 76.582 62.2559ZM76.582 52.749H84.0088C84.375 52.749 84.668 52.4561 84.668 52.0898V45.4687C84.668 45.1172 84.375 44.8242 84.0088 44.8242H76.582C76.2305 44.8242 75.9375 45.1172 75.9375 45.4687V52.0898C75.9375 52.4561 76.2158 52.749 76.582 52.749ZM86.9238 71.7773H94.3506C94.7021 71.7773 94.9951 71.4844 94.9951 71.1328V64.5264C94.9951 64.1602 94.7021 63.8818 94.3506 63.8672H86.9238C86.5723 63.8672 86.2793 64.1602 86.2793 64.5117V71.1328C86.2793 71.4844 86.5723 71.7773 86.9238 71.7773Z" fill="white"/>
</g>
<defs>
<clipPath id="clip0_29_451">
<rect width="150" height="150" fill="white"/>
</clipPath>
</defs>
</svg>
