<svg width="150" height="150" viewBox="0 0 150 150" fill="none" xmlns="http://www.w3.org/2000/svg">
<rect width="150" height="150" fill="#0C0C0C"/>
<path d="M114.566 52.6001H113.206C111.525 52.6001 109.941 53.3841 108.918 54.7185L94.9984 72.9217L81.0784 54.7185C80.0592 53.3841 78.4736 52.6001 76.7936 52.6001H75.4336L92.9872 75.5537L75.0576 99.0001H76.4176C78.0992 99.0001 79.6832 98.2161 80.704 96.8817L95 78.1873L109.296 96.8817C110.317 98.2161 111.901 99.0001 113.582 99.0001H114.942L97.0128 75.5537L114.566 52.6001ZM69.0624 89.7873C64.976 95.9969 56.9312 99.1793 49.24 96.3729C42.4736 93.9041 38.2 87.1777 38.2 79.9745V78.2001H57.4H75V71.5857C75 61.1777 67.2912 52.0657 56.928 51.0913C45.0368 49.9729 35 59.3361 35 71.0001V79.9169C35 88.5105 40.144 96.4993 48.2304 99.4097C58.7952 103.211 69.9072 97.5377 73.664 87.8001H72.6432C71.1856 87.8001 69.8624 88.5697 69.0624 89.7873ZM38.2 71.0001C38.2 61.7361 45.736 54.2001 55 54.2001C64.264 54.2001 71.8 61.7361 71.8 71.0001V75.0001H38.2V71.0001Z" fill="#F7F4F4"/>
</svg>
