<svg width="150" height="150" viewBox="0 0 150 150" fill="none" xmlns="http://www.w3.org/2000/svg">
<rect width="150" height="150" fill="#0C0C0C"/>
<g clip-path="url(#clip0_29_452)">
<path d="M60.253 118C68.1174 118 74.5002 111.579 74.5002 103.667V89.3335H60.253C52.3886 89.3335 46.0059 95.7548 46.0059 103.667C46.0059 111.579 52.3886 118 60.253 118Z" fill="#0ACF83"/>
<path d="M46.0059 74.9998C46.0059 67.0878 52.3886 60.6665 60.253 60.6665H74.5002V89.3332H60.253C52.3886 89.3332 46.0059 82.9118 46.0059 74.9998Z" fill="#A259FF"/>
<path d="M46.0059 46.3333C46.0059 38.4213 52.3886 32 60.253 32H74.5002V60.6667H60.253C52.3886 60.6667 46.0059 54.2453 46.0059 46.3333Z" fill="#F24E1E"/>
<path d="M74.5 32H88.7472C96.6116 32 102.994 38.4213 102.994 46.3333C102.994 54.2453 96.6116 60.6667 88.7472 60.6667H74.5V32Z" fill="#FF7262"/>
<path d="M102.994 74.9998C102.994 82.9118 96.6116 89.3332 88.7472 89.3332C80.8827 89.3332 74.5 82.9118 74.5 74.9998C74.5 67.0878 80.8827 60.6665 88.7472 60.6665C96.6116 60.6665 102.994 67.0878 102.994 74.9998Z" fill="#1ABCFE"/>
</g>
<defs>
<clipPath id="clip0_29_452">
<rect width="57" height="86" fill="white" transform="translate(46 32)"/>
</clipPath>
</defs>
</svg>
