<svg width="150" height="150" viewBox="0 0 150 150" fill="none" xmlns="http://www.w3.org/2000/svg">
<rect width="150" height="150" fill="#161614"/>
<path d="M74.8182 29.2852C48.9646 29.2852 28 50.2461 28 76.1034C28 96.7893 41.4148 114.339 60.0173 120.529C62.357 120.963 63.2162 119.514 63.2162 118.277C63.2162 117.161 63.1725 113.472 63.1527 109.56C50.1275 112.393 47.3791 104.036 47.3791 104.036C45.2494 98.6248 42.1808 97.1862 42.1808 97.1862C37.9332 94.2803 42.501 94.3398 42.501 94.3398C47.2024 94.6702 49.678 99.1646 49.678 99.1646C53.8537 106.322 60.6305 104.253 63.3021 103.057C63.7222 100.03 64.9358 97.9654 66.2745 96.7962C55.8758 95.6121 44.9439 91.5976 44.9439 73.6583C44.9439 68.547 46.7728 64.3703 49.768 61.0917C49.2818 59.9123 47.6794 55.1506 50.2215 48.7017C50.2215 48.7017 54.1529 47.4433 63.0998 53.5008C66.8341 52.4631 70.8394 51.9432 74.8182 51.9256C78.7971 51.9432 82.8053 52.4631 86.5469 53.5008C95.4832 47.4433 99.4092 48.7017 99.4092 48.7017C101.957 55.1506 100.354 59.9123 99.8681 61.0917C102.87 64.3703 104.686 68.5467 104.686 73.6583C104.686 91.6402 93.7339 95.6 83.3087 96.7588C84.9879 98.2118 86.4842 101.061 86.4842 105.429C86.4842 111.693 86.4298 116.735 86.4298 118.277C86.4298 119.523 87.2725 120.983 89.646 120.523C108.238 114.325 121.636 96.7823 121.636 76.1034C121.636 50.2461 100.674 29.2852 74.8182 29.2852Z" fill="white"/>
<path d="M45.5352 95.979C45.4324 96.2114 45.0659 96.2812 44.7329 96.1218C44.3933 95.9691 44.2023 95.6518 44.3125 95.4183C44.4135 95.1789 44.7799 95.112 45.1188 95.2729C45.4592 95.4253 45.6531 95.7454 45.5352 95.979ZM47.8382 98.0338C47.615 98.2408 47.1784 98.1446 46.8821 97.8175C46.5758 97.4911 46.5185 97.0548 46.7451 96.8444C46.9753 96.6377 47.3987 96.7343 47.7057 97.0611C48.0119 97.3912 48.0714 97.8248 47.8378 98.0341M49.4182 100.663C49.1311 100.862 48.6618 100.675 48.3721 100.259C48.0853 99.8429 48.0853 99.3435 48.3783 99.1434C48.6692 98.9433 49.1311 99.1232 49.4248 99.5363C49.7112 99.9597 49.7112 100.459 49.4179 100.663M52.0899 103.708C51.8332 103.991 51.2868 103.915 50.8866 103.529C50.4776 103.151 50.3634 102.616 50.6208 102.332C50.8804 102.049 51.43 102.129 51.8332 102.512C52.2397 102.888 52.3634 103.428 52.0899 103.708ZM55.5429 104.736C55.4302 105.102 54.9036 105.269 54.3734 105.113C53.8439 104.953 53.4973 104.523 53.6042 104.153C53.7143 103.784 54.2431 103.61 54.7773 103.777C55.3061 103.937 55.6531 104.363 55.5429 104.736ZM59.4733 105.172C59.4865 105.558 59.0367 105.878 58.48 105.885C57.9201 105.897 57.4673 105.585 57.4615 105.205C57.4615 104.815 57.901 104.498 58.4606 104.489C59.0172 104.478 59.4733 104.788 59.4733 105.172ZM63.3339 105.024C63.4007 105.401 63.0137 105.788 62.4611 105.89C61.9177 105.99 61.4146 105.757 61.3452 105.384C61.2776 104.997 61.672 104.611 62.2143 104.511C62.7681 104.414 63.2634 104.641 63.3339 105.024Z" fill="white"/>
</svg>
