<svg width="150" height="150" viewBox="0 0 150 150" fill="none" xmlns="http://www.w3.org/2000/svg">
<rect width="150" height="150" fill="#442D22"/>
<g clip-path="url(#clip0_29_407)">
<rect width="150" height="150" fill="#13AA52"/>
<path d="M75 150C116.421 150 150 116.421 150 75C150 33.5786 116.421 0 75 0C33.5786 0 0 33.5786 0 75C0 116.421 33.5786 150 75 150Z" fill="#13AA52"/>
<path d="M95.048 65.8359C90.3107 44.9282 79.1149 38.0537 77.9093 35.4272C76.591 33.5742 75.255 30.2783 75.255 30.2783C75.2331 30.2227 75.1979 30.1245 75.1569 30.0293C75.0207 31.8823 74.9504 32.5972 73.1984 34.4663C70.4855 36.5874 56.5666 48.2666 55.4342 72.0205C54.3781 94.1748 71.4377 107.376 73.7448 109.059L74.007 109.245V109.229C74.0216 109.34 74.7394 114.502 75.2433 119.972H77.0509C77.4751 116.106 78.1108 112.266 78.9552 108.469L79.1017 108.374C80.1337 107.634 81.1177 106.829 82.0475 105.964L82.153 105.869C87.0573 101.338 95.8742 90.8584 95.7877 74.1504C95.7695 71.3633 95.5221 68.5825 95.048 65.8359ZM75.0514 96.5508C75.0514 96.5508 75.0514 65.4785 76.0768 65.4844C76.8766 65.4844 77.9123 105.564 77.9123 105.564C76.4884 105.393 75.0514 98.9678 75.0514 96.5508Z" fill="white"/>
</g>
<defs>
<clipPath id="clip0_29_407">
<rect width="150" height="150" fill="white"/>
</clipPath>
</defs>
</svg>
