<svg width="150" height="150" viewBox="0 0 150 150" fill="none" xmlns="http://www.w3.org/2000/svg">
<rect width="150" height="150" fill="black"/>
<g clip-path="url(#clip0_29_250)">
<path d="M74.9185 149.602C116.178 149.602 149.625 116.154 149.625 74.8945C149.625 33.635 116.178 0.1875 74.9185 0.1875C33.6589 0.1875 0.211426 33.635 0.211426 74.8945C0.211426 116.154 33.6589 149.602 74.9185 149.602Z" fill="black"/>
<path d="M124.315 130.942L57.6051 45.0117H45.0356V104.753H55.0912V57.781L116.422 137.021C119.185 135.172 121.822 133.141 124.315 130.942Z" fill="url(#paint0_linear_29_250)"/>
<path fill-rule="evenodd" clip-rule="evenodd" d="M95.6704 45.0117H105.631V104.777H95.6704V45.0117Z" fill="url(#paint1_linear_29_250)"/>
</g>
<defs>
<linearGradient id="paint0_linear_29_250" x1="90.6903" y1="96.8924" x2="120.158" y2="133.416" gradientUnits="userSpaceOnUse">
<stop stop-color="white"/>
<stop offset="1" stop-color="white" stop-opacity="0"/>
</linearGradient>
<linearGradient id="paint1_linear_29_250" x1="100.651" y1="45.013" x2="100.484" y2="88.9034" gradientUnits="userSpaceOnUse">
<stop stop-color="white"/>
<stop offset="1" stop-color="white" stop-opacity="0"/>
</linearGradient>
<clipPath id="clip0_29_250">
<rect width="150" height="150" fill="white"/>
</clipPath>
</defs>
</svg>
