<svg width="150" height="150" viewBox="0 0 150 150" fill="none" xmlns="http://www.w3.org/2000/svg">
<rect width="150" height="150" fill="#689F63"/>
<g clip-path="url(#clip0_31_317)">
<path fill-rule="evenodd" clip-rule="evenodd" d="M85.235 95.41C70.0534 95.41 66.8706 88.3903 66.8706 82.4966C66.8706 81.9375 67.3176 81.4871 67.8725 81.4871H72.3576C72.8508 81.4871 73.267 81.8521 73.344 82.3413C74.0222 86.946 76.0336 89.2678 85.2196 89.2678C92.533 89.2678 95.6387 87.606 95.6387 83.6924C95.6387 81.4406 94.7525 79.7711 83.3932 78.6529C73.8912 77.7055 68.0189 75.6012 68.0189 67.9371C68.0189 60.8864 73.922 56.6854 83.8171 56.6854C94.9297 56.6854 100.432 60.568 101.126 68.9232C101.149 69.2105 101.049 69.4901 100.856 69.6997C100.663 69.9016 100.394 70.0259 100.116 70.0259H95.6156C95.1455 70.0259 94.7371 69.692 94.6446 69.2416C93.558 64.4039 90.9378 62.8509 83.8017 62.8509C75.8178 62.8509 74.893 65.6541 74.893 67.7507C74.893 70.2976 75.9873 71.0431 86.7609 72.4796C97.4266 73.9084 102.49 75.9196 102.49 83.475C102.49 91.0926 96.1859 95.4566 85.1888 95.4566L85.235 95.41ZM74.5154 123.209C73.2439 123.209 71.9877 122.875 70.878 122.231L59.2952 115.32C57.5613 114.341 58.409 114 58.9793 113.798C61.2835 112.982 61.7536 112.804 64.2196 111.391C64.4817 111.243 64.8207 111.297 65.0828 111.453L73.9837 116.772C74.3073 116.95 74.762 116.95 75.0626 116.772L109.765 96.5902C110.088 96.4039 110.296 96.0312 110.296 95.6429V55.3032C110.296 54.8995 110.088 54.5423 109.757 54.3404L75.0626 34.1744C74.7389 33.9803 74.315 33.9803 73.9914 34.1744L39.3125 54.3404C38.9734 54.5345 38.7653 54.9072 38.7653 55.2955V95.6429C38.7653 96.0312 38.9734 96.3961 39.3048 96.5825L48.8068 102.111C53.9624 104.713 57.122 101.645 57.122 98.5704V58.7432C57.122 58.1763 57.5613 57.7337 58.1316 57.7337H62.5242C63.0714 57.7337 63.5261 58.1686 63.5261 58.7432V98.5859C63.5261 105.52 59.773 109.496 53.2534 109.496C51.2497 109.496 49.6622 109.496 45.2541 107.306L36.1374 102.018C33.8872 100.706 32.5 98.2597 32.5 95.6429V55.2955C32.5 52.6709 33.8872 50.2171 36.1374 48.9203L70.8703 28.7311C73.0666 27.4809 75.9873 27.4809 78.1683 28.7311L112.863 48.9281C115.105 50.2326 116.5 52.6709 116.5 55.3032V95.6507C116.5 98.2675 115.105 100.706 112.863 102.026L78.1683 122.215C77.0585 122.86 75.7947 123.193 74.5154 123.193V123.209Z" fill="white"/>
</g>
<defs>
<clipPath id="clip0_31_317">
<rect width="84" height="95.4175" fill="white" transform="translate(32.5 27.7915)"/>
</clipPath>
</defs>
</svg>
