<svg width="150" height="150" viewBox="0 0 150 150" fill="none" xmlns="http://www.w3.org/2000/svg">
<rect width="150" height="150" fill="#61DAFB"/>
<path d="M74.5938 83.5625C79.5471 83.5625 83.5625 79.5471 83.5625 74.5938C83.5625 69.6404 79.5471 65.625 74.5938 65.625C69.6404 65.625 65.625 69.6404 65.625 74.5938C65.625 79.5471 69.6404 83.5625 74.5938 83.5625Z" fill="white"/>
<path d="M74.375 93.6147C100.954 93.6147 122.5 85.388 122.5 75.2397C122.5 65.0915 100.954 56.8647 74.375 56.8647C47.7963 56.8647 26.25 65.0915 26.25 75.2397C26.25 85.388 47.7963 93.6147 74.375 93.6147Z" stroke="white" stroke-width="4.375"/>
<path d="M58.4617 84.4275C71.751 107.445 89.6487 121.992 98.4374 116.917C107.226 111.843 103.577 89.0703 90.2881 66.0525C76.9987 43.0346 59.101 28.4884 50.3124 33.5625C41.5237 38.6366 45.1723 61.4096 58.4617 84.4275Z" stroke="white" stroke-width="4.375"/>
<path d="M58.4617 66.052C45.1723 89.0698 41.5237 111.843 50.3124 116.917C59.101 121.991 76.9987 107.445 90.2881 84.427C103.577 61.4092 107.226 38.6361 98.4374 33.562C89.6487 28.4879 71.751 43.0342 58.4617 66.052Z" stroke="white" stroke-width="4.375"/>
</svg>
