<svg width="150" height="150" viewBox="0 0 150 150" fill="none" xmlns="http://www.w3.org/2000/svg">
<rect width="150" height="150" fill="#3178C6"/>
<g clip-path="url(#clip0_29_387)">
<path d="M130.523 6H19.4766C12.0337 6 6 12.0337 6 19.4766V130.523C6 137.966 12.0337 144 19.4766 144H130.523C137.966 144 144 137.966 144 130.523V19.4766C144 12.0337 137.966 6 130.523 6Z" fill="#3178C6"/>
<path fill-rule="evenodd" clip-rule="evenodd" d="M91.425 115.814V129.306C93.6184 130.431 96.2126 131.274 99.2077 131.836C102.203 132.399 105.359 132.68 108.678 132.68C111.912 132.68 114.984 132.371 117.895 131.752C120.805 131.134 123.357 130.115 125.551 128.695C127.744 127.276 129.481 125.42 130.76 123.129C132.04 120.838 132.68 118.006 132.68 114.633C132.68 112.187 132.314 110.044 131.583 108.203C130.852 106.362 129.797 104.724 128.419 103.291C127.041 101.857 125.389 100.571 123.463 99.4322C121.536 98.2937 119.364 97.2185 116.946 96.2067C115.174 95.4757 113.585 94.7661 112.179 94.0774C110.773 93.3885 109.578 92.6858 108.593 91.9692C107.609 91.2522 106.85 90.4932 106.315 89.6922C105.781 88.8908 105.514 87.9844 105.514 86.9723C105.514 86.0449 105.753 85.2085 106.231 84.4635C106.709 83.7185 107.384 83.0792 108.256 82.545C109.128 82.0111 110.196 81.5962 111.462 81.3011C112.727 81.006 114.133 80.8585 115.68 80.8585C116.805 80.8585 117.993 80.9429 119.244 81.1114C120.496 81.2801 121.754 81.5402 123.02 81.8914C124.285 82.2428 125.516 82.6857 126.711 83.2196C127.906 83.7538 129.01 84.3721 130.022 85.0751V72.4675C127.969 71.6805 125.727 71.0972 123.294 70.7177C120.862 70.3382 118.07 70.1484 114.921 70.1484C111.715 70.1484 108.678 70.4929 105.809 71.1815C102.941 71.8702 100.417 72.9454 98.2374 74.407C96.0579 75.869 94.3356 77.7312 93.0702 79.9941C91.8047 82.2569 91.1719 84.9624 91.1719 88.1108C91.1719 92.1306 92.3319 95.5601 94.6521 98.3994C96.9719 101.238 100.494 103.642 105.219 105.61C107.075 106.369 108.804 107.113 110.407 107.844C112.01 108.575 113.395 109.334 114.562 110.121C115.729 110.908 116.65 111.766 117.325 112.693C118 113.621 118.338 114.675 118.338 115.856C118.338 116.727 118.127 117.535 117.705 118.28C117.283 119.025 116.643 119.672 115.785 120.22C114.928 120.768 113.859 121.197 112.58 121.506C111.3 121.815 109.803 121.97 108.087 121.97C105.162 121.97 102.266 121.457 99.3974 120.431C96.5291 119.405 93.8715 117.866 91.425 115.814ZM68.7415 82.569H86.0508V71.4961H37.8047V82.569H55.0294V131.871H68.7415V82.569Z" fill="white"/>
</g>
<defs>
<clipPath id="clip0_29_387">
<rect width="138" height="138" fill="white" transform="translate(6 6)"/>
</clipPath>
</defs>
</svg>
